<?xml version="1.0" encoding="UTF-8" standalone="no"?>
<!-- Created with Inkscape (http://www.inkscape.org/) -->

<svg
   xmlns:dc="http://purl.org/dc/elements/1.1/"
   xmlns:cc="http://creativecommons.org/ns#"
   xmlns:rdf="http://www.w3.org/1999/02/22-rdf-syntax-ns#"
   xmlns:svg="http://www.w3.org/2000/svg"
   xmlns="http://www.w3.org/2000/svg"
   xmlns:sodipodi="http://sodipodi.sourceforge.net/DTD/sodipodi-0.dtd"
   xmlns:inkscape="http://www.inkscape.org/namespaces/inkscape"
   width="210mm"
   height="297mm"
   viewBox="0 0 210 297"
   version="1.1"
   id="svg8"
   inkscape:version="0.92.3 (unknown)"
   sodipodi:docname="monk.svg">
  <defs
     id="defs2" />
  <sodipodi:namedview
     id="base"
     pagecolor="#ffffff"
     bordercolor="#666666"
     borderopacity="1.0"
     inkscape:pageopacity="0.0"
     inkscape:pageshadow="2"
     inkscape:zoom="0.7"
     inkscape:cx="630.6561"
     inkscape:cy="602.35352"
     inkscape:document-units="mm"
     inkscape:current-layer="layer1"
     showgrid="false"
     inkscape:window-width="1855"
     inkscape:window-height="1056"
     inkscape:window-x="65"
     inkscape:window-y="24"
     inkscape:window-maximized="1" />
  <metadata
     id="metadata5">
    <rdf:RDF>
      <cc:Work
         rdf:about="">
        <dc:format>image/svg+xml</dc:format>
        <dc:type
           rdf:resource="http://purl.org/dc/dcmitype/StillImage" />
        <dc:title></dc:title>
      </cc:Work>
    </rdf:RDF>
  </metadata>
  <g
     inkscape:label="Layer 1"
     inkscape:groupmode="layer"
     id="layer1">
    <path
       style="fill:#000000;stroke-width:0.92075288"
       d="m 136.00296,245.93664 c 1.51925,-0.59745 4.50669,-2.01615 6.63878,-3.15258 3.95448,-2.1078 7.56419,-2.50985 10.85552,-1.20902 1.47515,0.58303 1.0172,0.86607 -2.30188,1.4227 -2.27885,0.38221 -6.21508,1.47552 -8.74715,2.42964 -2.53206,0.95411 -5.63961,1.70346 -6.90564,1.66518 -2.22107,-0.0672 -2.2049,-0.10793 0.46037,-1.15592 z m 47.87916,-8.03555 c 2.02565,-0.90776 4.53415,-1.6812 5.57443,-1.71879 2.21152,-0.0797 9.31402,-4.45065 11.80499,-7.26469 1.02133,-1.15379 1.52667,-2.71514 1.23714,-3.82234 -0.67655,-2.58707 0.38478,-2.34181 3.3758,0.78016 1.94884,2.03416 2.47159,3.37473 2.24397,5.75472 -0.25324,2.64779 -0.90902,3.40685 -4.47221,5.17665 -3.33008,1.65401 -6.12637,2.14181 -13.81129,2.40931 l -9.63585,0.33548 z M 33.799388,236.11403 c -0.312993,-0.50641 -1.954256,-0.92074 -3.647278,-0.92074 -2.555219,0 -3.23339,-0.44513 -3.991471,-2.61975 -0.554784,-1.59146 -0.605881,-4.21172 -0.130188,-6.67546 0.430694,-2.23066 0.801123,-6.46217 0.823175,-9.40341 0.03797,-5.06565 0.248682,-5.55135 3.993877,-9.20756 2.779631,-2.71357 5.855766,-4.51514 10.358469,-6.06655 5.289957,-1.82266 14.748847,-5.99844 15.906479,-7.02215 0.161855,-0.14303 0.891524,-2.68287 1.621523,-5.64395 2.325867,-9.43427 3.461089,-12.66112 5.768845,-16.39792 2.6005,-4.21081 4.718825,-11.46385 4.734613,-16.21108 0.01287,-3.83775 2.459238,-12.67359 4.061557,-14.66897 0.609987,-0.75962 2.032799,-4.62761 3.161806,-8.59552 2.949553,-10.36625 8.999976,-22.40164 13.89918,-27.64802 4.32981,-4.63663 14.199255,-11.635613 16.407695,-11.635613 2.18352,0 6.67684,-2.762804 6.67684,-4.105384 0,-1.967504 7.2983,-7.487643 11.96979,-9.053478 5.68506,-1.90557 13.80445,-2.812521 18.33156,-2.047669 3.51925,0.594573 3.80893,0.875866 4.34329,4.217596 0.78107,4.884506 4.98709,9.28289 12.77413,13.358303 3.5449,1.855261 7.3685,4.216565 8.49692,5.247345 2.30672,2.10716 10.37851,17.21801 10.37851,19.42917 0,0.78797 0.7251,1.82911 1.61133,2.31366 3.10695,1.69876 5.69467,11.68262 11.72091,45.22144 1.31939,7.34301 2.76169,14.59393 3.20509,16.11316 0.44341,1.51928 0.78561,6.19864 0.76044,10.39859 -0.0386,6.43071 0.22774,7.8434 1.6867,8.94805 2.84322,2.15277 0.0846,1.55138 -6.42694,-1.40113 -6.48652,-2.94109 -6.62524,-3.12546 -5.19074,-6.89845 1.8788,-4.94162 0.0895,-12.01784 -4.96341,-19.62938 -2.58155,-3.88876 -5.47561,-7.97911 -6.43124,-9.08969 -1.75619,-2.04094 -2.62607,-8.77917 -2.47326,-19.15809 0.14361,-9.7529 -1.7632,-17.07283 -7.43543,-28.54335 -6.79304,-13.73702 -9.28979,-16.12459 -24.57554,-23.500824 -6.41792,-3.097006 -12.38841,-6.016453 -13.26776,-6.48766 -2.53072,-1.35609 -6.22758,-1.044786 -6.22758,0.524406 0,0.759614 -0.3499,1.381124 -0.77754,1.381124 -0.42765,0 -1.96768,1.022667 -3.42231,2.272584 -1.45462,1.249916 -3.79793,2.525848 -5.20734,2.835416 -1.71805,0.37734 -2.5626,1.145621 -2.5626,2.331179 0,1.154513 -0.63924,1.768348 -1.8415,1.768348 -1.15913,0 -1.8415,0.613837 -1.8415,1.656537 0,1.09383 -1.17291,2.05123 -3.45283,2.81844 -7.562893,2.54497 -10.403954,4.19718 -12.068513,7.01839 -0.953184,1.61552 -2.511002,4.12461 -3.461832,5.57577 -1.600249,2.44228 -1.608322,2.59222 -0.10857,2.01671 1.370182,-0.52578 1.535294,-0.23479 1.069971,1.88582 -0.960998,4.37949 -3.247667,9.81123 -4.931834,11.71507 -2.457534,2.77807 -6.47916,13.73221 -5.881134,16.01907 0.316298,1.20958 -0.09338,2.67614 -1.039692,3.72183 -0.858937,0.9491 -1.652581,2.91662 -1.763656,4.37225 -0.111085,1.45562 -0.910385,3.65803 -1.776239,4.89421 -0.865858,1.23619 -1.574289,2.90296 -1.574289,3.70398 0,0.801 -1.149457,3.29841 -2.554355,5.54983 -4.841788,7.75916 -8.908115,20.20128 -8.33896,25.51548 0.233163,2.17691 -4.690198,13.50796 -6.494795,14.94772 -1.581644,1.26187 -5.630711,7.4048 -5.630711,8.54244 0,0.71462 -2.036975,3.62708 -4.526611,6.47212 -2.990502,3.41741 -4.375717,5.74981 -4.081965,6.87313 0.309234,1.18252 -0.28825,2.03424 -1.961985,2.79685 -2.914499,1.32793 -2.986912,1.33138 -3.70111,0.17575 z m -20.947005,-2.79959 c -12.67221263,-0.65916 -14.0289199,-1.85161 -4.6166694,-4.05773 4.9243414,-1.15423 8.0896784,-2.49674 10.1731024,-4.31476 4.526698,-3.95006 5.285497,-3.5112 5.113132,2.95716 -0.08202,3.07863 -0.28919,5.67235 -0.460377,5.76384 -0.171183,0.0916 -4.765302,-0.0654 -10.209188,-0.34851 z M 162.91964,200.09042 c 0.62459,-0.62927 1.36753,-0.91214 1.65103,-0.62866 0.28348,0.28361 -0.22752,0.79831 -1.13559,1.14409 -1.31226,0.49968 -1.41802,0.39393 -0.51544,-0.51543 z M 108.86272,83.861867 c -2.96794,-0.976601 -3.32079,-1.512485 -4.8527,-7.369579 -0.90862,-3.474014 -2.2651,-7.191672 -3.01442,-8.261463 -0.76841,-1.097059 -1.36237,-3.983328 -1.36237,-6.620188 0,-2.571314 -0.462292,-5.137409 -1.02732,-5.702427 -0.755907,-0.755913 -0.634288,-1.58843 0.460378,-3.151285 0.818233,-1.168183 1.487692,-2.96957 1.487692,-4.003081 0,-3.162533 6.04482,-11.074843 10.74809,-14.068595 4.53055,-2.883819 13.78933,-5.285782 17.85534,-4.632135 1.61972,0.260375 0.75098,0.7131 -3.13075,1.631481 -3.35945,0.794814 -6.41475,2.244653 -8.15396,3.86933 -1.52978,1.429029 -3.08998,2.598237 -3.46709,2.598237 -1.22507,0 -5.08396,5.656987 -5.88102,8.62135 -0.42709,1.588435 -0.7381,4.234663 -0.69113,5.880505 0.0563,1.966015 -0.34864,2.992449 -1.18005,2.992449 -1.34319,0 -2.42231,3.869277 -2.40743,8.63206 0.005,1.582544 1.04079,5.093771 2.3019,7.802734 1.26108,2.708958 2.29287,5.582627 2.29287,6.385924 0,0.803302 0.89936,2.417881 1.9986,3.587957 2.52998,2.693049 2.05006,3.131723 -1.97663,1.806726 z m 3.09744,-12.647851 c -1.88525,-2.385843 -2.22937,-6.09075 -0.81722,-8.798369 0.7532,-1.444187 1.37203,-2.038813 1.37515,-1.321392 0.002,0.717419 0.20657,1.103494 0.45213,0.857946 0.24555,-0.245551 -0.34167,-1.9923 -1.30491,-3.881664 -1.38361,-2.713867 -1.85038,-3.087365 -2.22291,-1.778697 -0.25935,0.911081 -0.39722,0.417035 -0.30642,-1.097878 0.16852,-2.810453 2.6912,-4.295387 4.39788,-2.588713 1.05433,1.054342 1.15556,8.58788 0.20051,14.925757 -0.58632,3.891059 -0.97397,4.695756 -1.77423,3.68301 z"
       id="path3724"
       inkscape:connector-curvature="0" />
  </g>
</svg>
